<svg width="18" height="19" viewBox="0 0 18 19" fill="none" xmlns="http://www.w3.org/2000/svg">
<path d="M3 9.5H1M3 9.5C3 10.6046 3.89543 11.5 5 11.5C6.10457 11.5 7 10.6046 7 9.5M3 9.5C3 8.39543 3.89543 7.5 5 7.5C6.10457 7.5 7 8.39543 7 9.5M15 15.5C15 14.3954 14.1046 13.5 13 13.5C11.8954 13.5 11 14.3954 11 15.5M15 15.5C15 16.6046 14.1046 17.5 13 17.5C11.8954 17.5 11 16.6046 11 15.5M15 15.5H17M11 15.5H1M7 9.5H17M15 3.5C15 2.39543 14.1046 1.5 13 1.5C11.8954 1.5 11 2.39543 11 3.5M15 3.5C15 4.60457 14.1046 5.5 13 5.5C11.8954 5.5 11 4.60457 11 3.5M15 3.5L17 3.5M11 3.5H1" stroke="#667085" stroke-width="1.5" stroke-linecap="round" stroke-linejoin="round"/>
</svg>
